<?xml version="1.0" standalone="no"?>
<!DOCTYPE svg PUBLIC "-//W3C//DTD SVG 20010904//EN"
 "http://www.w3.org/TR/2001/REC-SVG-20010904/DTD/svg10.dtd">
<svg version="1.0" xmlns="http://www.w3.org/2000/svg"
 width="128.000000pt" height="128.000000pt" viewBox="0 0 128.000000 128.000000"
 preserveAspectRatio="xMidYMid meet">
<metadata>
Created by potrace 1.15, written by Peter Selinger 2001-2017
</metadata>
<g transform="translate(0.000000,128.000000) scale(0.100000,-0.100000)"
fill="#000000" stroke="none">
<path d="M182 1190 l-33 -40 -28 32 c-17 20 -32 28 -40 23 -9 -5 -4 -16 18
-39 l31 -32 -28 -27 c-16 -15 -31 -24 -35 -20 -4 3 -7 -6 -7 -21 0 -15 4 -25
8 -22 5 3 21 -7 36 -22 l26 -28 -29 -28 c-16 -15 -32 -28 -35 -27 -3 1 -6 -1
-6 -4 0 -44 1 -49 8 -37 6 9 15 5 35 -16 l27 -28 -30 -29 c-16 -16 -30 -25
-31 -19 0 5 -4 0 -8 -11 -10 -25 -3 -45 13 -39 6 2 22 -6 34 -19 l22 -23 -30
-29 c-17 -16 -30 -25 -31 -19 0 5 -4 0 -8 -11 -10 -24 -3 -47 11 -39 5 3 20
-4 33 -16 l24 -23 -20 -29 c-12 -17 -27 -27 -35 -24 -10 4 -14 -3 -14 -25 0
-17 4 -28 9 -25 20 13 41 -7 41 -39 0 -34 -22 -61 -40 -50 -6 4 -10 -6 -10
-25 0 -19 4 -29 10 -25 18 11 40 -16 40 -50 0 -32 -21 -52 -41 -39 -5 3 -9 -9
-9 -26 0 -19 4 -29 11 -25 5 4 21 -5 35 -20 l25 -27 -22 -24 c-13 -14 -29 -22
-36 -20 -19 8 -16 -8 5 -27 22 -20 33 -22 26 -4 -2 7 7 24 21 37 l25 23 25
-23 c15 -14 23 -30 20 -40 -4 -13 1 -17 25 -17 24 0 29 4 25 17 -3 10 5 26 20
40 l25 23 25 -23 c15 -14 23 -30 20 -40 -4 -13 1 -17 25 -17 20 0 29 5 26 13
-2 6 8 24 23 38 l27 26 22 -23 c13 -14 20 -31 17 -39 -5 -13 1 -16 30 -16 27
0 34 3 26 11 -8 8 -4 19 16 39 l27 28 28 -27 c20 -19 25 -30 17 -39 -7 -9 -1
-12 26 -12 26 0 33 3 26 12 -14 17 12 46 41 46 31 0 63 -31 47 -47 -8 -8 -1
-11 26 -11 27 0 34 3 26 11 -8 8 -4 19 16 39 l27 28 27 -26 c15 -15 25 -32 23
-39 -3 -8 6 -12 26 -13 25 -1 30 3 25 17 -3 11 4 26 20 41 l25 23 25 -23 c15
-14 23 -30 20 -40 -4 -13 1 -17 25 -17 24 0 29 4 25 17 -3 10 5 26 20 40 l25
24 30 -29 c39 -38 52 -24 14 16 l-29 30 33 30 c17 16 32 33 32 39 0 6 -15 24
-32 40 l-33 30 33 30 c17 16 32 34 32 40 0 6 -15 24 -32 40 l-33 30 33 30 c17
16 32 34 32 40 0 6 -15 24 -33 40 l-32 30 32 30 c18 16 33 34 33 40 0 6 -15
24 -32 40 l-33 30 33 30 c17 16 32 34 32 40 0 6 -15 24 -32 40 l-33 30 33 30
c17 16 32 35 32 42 0 7 -14 26 -30 43 l-30 31 30 29 c38 36 38 50 -1 82 l-30
26 25 26 c14 15 26 30 26 34 0 14 -24 6 -48 -15 l-24 -23 -33 38 c-22 25 -38
35 -49 31 -9 -3 -14 -9 -11 -14 2 -4 -8 -19 -23 -33 l-27 -26 -29 38 c-20 28
-33 37 -47 34 -11 -3 -17 -8 -14 -11 10 -11 -37 -51 -54 -45 -25 9 -51 35 -45
44 3 5 -6 9 -20 9 -15 0 -25 -5 -24 -12 4 -16 -73 -29 -89 -16 -7 6 -10 14 -7
19 3 5 -2 9 -10 9 -9 0 -18 0 -21 0 -3 0 -5 -3 -4 -6 1 -3 -12 -19 -27 -35
l-28 -29 -28 26 c-15 15 -25 31 -23 35 3 4 -3 9 -12 11 -11 3 -30 -10 -50 -32
l-31 -35 -26 24 c-14 13 -23 27 -21 31 3 5 -2 11 -11 14 -11 4 -28 -6 -50 -31
l-34 -38 -34 38 c-18 20 -35 37 -37 37 -2 0 -19 -18 -37 -40z m651 -67 c65
-23 122 -74 155 -137 22 -42 27 -64 27 -126 0 -65 -4 -82 -30 -128 -89 -163
-294 -200 -431 -79 -70 61 -89 106 -89 207 0 102 19 146 91 209 77 68 182 88
277 54z m-273 -646 c14 -7 36 -29 49 -50 l24 -37 97 0 c95 0 120 -8 120 -36 0
-34 -30 -44 -136 -44 -63 0 -104 -4 -104 -10 0 -6 42 -10 105 -10 l105 0 127
59 c70 32 133 57 140 54 17 -7 27 -43 15 -55 -6 -6 -93 -55 -193 -109 -122
-66 -194 -99 -215 -99 -25 0 -240 67 -336 105 -16 6 -18 22 -18 126 l0 119 98
0 c58 0 107 -5 122 -13z"/>
<path d="M632 1074 c-188 -94 -171 -370 27 -440 88 -32 175 -10 246 61 98 97
101 222 8 325 -74 82 -183 103 -281 54z m193 -13 c75 -35 135 -124 135 -200 0
-54 -31 -119 -74 -159 -84 -78 -205 -79 -290 -3 -104 95 -100 240 11 334 54
47 152 59 218 28z"/>
<path d="M642 999 c-9 -14 -10 -24 -3 -33 10 -11 8 -151 -3 -204 -6 -29 22
-78 31 -54 3 6 13 12 23 12 10 0 21 -6 24 -12 5 -10 7 -10 12 0 3 6 21 12 40
12 73 0 111 84 61 134 -18 18 -23 32 -19 55 5 37 -18 76 -50 87 -13 3 -27 12
-31 18 -6 8 -10 8 -14 -1 -6 -15 -43 -17 -43 -3 0 17 -14 11 -28 -11z"/>
</g>
</svg>
